<svg xmlns="http://www.w3.org/2000/svg" xmlns:xlink="http://www.w3.org/1999/xlink" viewBox="0,0,256,256" width="30px" height="30px" fill-rule="nonzero"><g fill="#fff8f8" fill-rule="nonzero" stroke="none" stroke-width="1" stroke-linecap="butt" stroke-linejoin="miter" stroke-miterlimit="10" stroke-dasharray="" stroke-dashoffset="0" font-family="none" font-weight="none" font-size="none" text-anchor="none" style="mix-blend-mode: normal"><path d="M0,256v-256h256v256z" id="bgRectangle"></path></g><g fill="none" fill-rule="nonzero" stroke="none" stroke-width="none" stroke-linecap="butt" stroke-linejoin="none" stroke-miterlimit="10" stroke-dasharray="" stroke-dashoffset="0" font-family="none" font-weight="none" font-size="none" text-anchor="none" style="mix-blend-mode: normal"><path transform="scale(8.53333,8.53333)" d="M26,6v18c0,1.105 -0.895,2 -2,2h-5v-9h2.726l0.428,-3h-3.154v-1.282c0,-1.15 0.376,-1.718 1.452,-1.718h1.729v-2.869c-0.304,-0.041 -0.946,-0.131 -2.16,-0.131c-2.535,0 -4.021,1.339 -4.021,4.389v1.611h-3v3h3v9h-10c-1.105,0 -2,-0.895 -2,-2v-18c0,-1.105 0.895,-2 2,-2h18c1.104,0 2,0.895 2,2z" id="strokeMainSVG" fill="#fff8f8" stroke="#fff8f8" stroke-width="4" stroke-linejoin="round"></path><g transform="scale(8.53333,8.53333)" fill="#0879e9" stroke="none" stroke-width="1" stroke-linejoin="miter"><path d="M24,4h-18c-1.105,0 -2,0.895 -2,2v18c0,1.105 0.895,2 2,2h10v-9h-3v-3h3v-1.611c0,-3.05 1.486,-4.389 4.021,-4.389c1.214,0 1.856,0.09 2.16,0.131v2.869h-1.729c-1.076,0 -1.452,0.568 -1.452,1.718v1.282h3.154l-0.428,3h-2.726v9h5c1.105,0 2,-0.895 2,-2v-18c0,-1.105 -0.896,-2 -2,-2z"></path></g></g></svg>