<svg xmlns="http://www.w3.org/2000/svg" xmlns:xlink="http://www.w3.org/1999/xlink" viewBox="0,0,256,256" width="30px" height="30px" fill-rule="nonzero"><g fill="#00aaec" fill-rule="nonzero" stroke="none" stroke-width="1" stroke-linecap="butt" stroke-linejoin="miter" stroke-miterlimit="10" stroke-dasharray="" stroke-dashoffset="0" font-family="none" font-weight="none" font-size="none" text-anchor="none" style="mix-blend-mode: normal"><g transform="scale(8.53333,8.53333)"><path d="M27,15c0,6.627 -5.373,12 -12,12c-6.627,0 -12,-5.373 -12,-12c0,-6.627 5.373,-12 12,-12c6.627,0 12,5.373 12,12zM22.999,10.941c-0.553,0.245 -1.146,0.41 -1.768,0.484c0.636,-0.382 1.124,-0.984 1.354,-1.703c-0.595,0.353 -1.254,0.608 -1.955,0.747c-0.561,-0.598 -1.361,-0.972 -2.246,-0.972c-1.699,0 -3.077,1.379 -3.077,3.078c0,0.241 0.027,0.476 0.079,0.701c-2.557,-0.128 -4.825,-1.354 -6.343,-3.216c-0.265,0.453 -0.416,0.982 -0.416,1.547c0,1.067 0.544,2.01 1.369,2.561c-0.505,-0.016 -0.979,-0.154 -1.394,-0.385c0,0.013 0,0.026 0,0.039c0,1.491 1.061,2.735 2.469,3.017c-0.257,0.07 -0.53,0.108 -0.811,0.108c-0.198,0 -0.391,-0.019 -0.579,-0.055c0.391,1.222 1.528,2.112 2.875,2.137c-1.052,0.827 -2.378,1.318 -3.821,1.318c-0.249,0 -0.494,-0.013 -0.735,-0.042c1.361,0.874 2.978,1.383 4.717,1.383c5.661,0 8.756,-4.688 8.756,-8.756c0,-0.132 -0.003,-0.264 -0.009,-0.397c0.603,-0.435 1.124,-0.976 1.535,-1.594z"></path></g></g></svg>